<svg xmlns="http://www.w3.org/2000/svg" xmlns:xlink="http://www.w3.org/1999/xlink" width="2000" zoomAndPan="magnify" viewBox="0 0 1500 1499.999933" height="2000" preserveAspectRatio="xMidYMid meet" version="1.0"><defs><filter x="0%" y="0%" width="100%" height="100%" id="07cfb759bd"><feColorMatrix values="0 0 0 0 1 0 0 0 0 1 0 0 0 0 1 0 0 0 1 0" color-interpolation-filters="sRGB"/></filter><mask id="7c28fce7bf"><g filter="url(#07cfb759bd)"><rect x="-150" width="1800" fill="#000000" y="-149.999993" height="1799.99992" fill-opacity="0.5"/></g></mask><clipPath id="989726d051"><rect x="0" width="231" y="0" height="39"/></clipPath><mask id="bf97059cd0"><g filter="url(#07cfb759bd)"><rect x="-150" width="1800" fill="#000000" y="-149.999993" height="1799.99992" fill-opacity="0.35"/></g></mask><clipPath id="57668116ff"><path d="M 0.878906 0.839844 L 250.238281 0.839844 L 250.238281 20.28125 L 0.878906 20.28125 Z M 0.878906 0.839844 " clip-rule="nonzero"/></clipPath><clipPath id="08bb7ee8b4"><rect x="0" width="251" y="0" height="21"/></clipPath><mask id="32d81897a7"><g filter="url(#07cfb759bd)"><rect x="-150" width="1800" fill="#000000" y="-149.999993" height="1799.99992" fill-opacity="0.2"/></g></mask><clipPath id="a0528baa5a"><rect x="0" width="202" y="0" height="20"/></clipPath><mask id="0bec92aef3"><g filter="url(#07cfb759bd)"><rect x="-150" width="1800" fill="#000000" y="-149.999993" height="1799.99992" fill-opacity="0.5"/></g></mask><clipPath id="3e12191678"><rect x="0" width="231" y="0" height="39"/></clipPath><mask id="cc3b50899b"><g filter="url(#07cfb759bd)"><rect x="-150" width="1800" fill="#000000" y="-149.999993" height="1799.99992" fill-opacity="0.35"/></g></mask><clipPath id="14b0540d19"><path d="M 0.078125 0.839844 L 249.441406 0.839844 L 249.441406 20.28125 L 0.078125 20.28125 Z M 0.078125 0.839844 " clip-rule="nonzero"/></clipPath><clipPath id="a6535f137a"><rect x="0" width="250" y="0" height="21"/></clipPath><mask id="b1d80a2cc9"><g filter="url(#07cfb759bd)"><rect x="-150" width="1800" fill="#000000" y="-149.999993" height="1799.99992" fill-opacity="0.2"/></g></mask><clipPath id="f00a0be076"><rect x="0" width="212" y="0" height="20"/></clipPath></defs><path stroke-linecap="butt" transform="matrix(9.58013, 0, 0, 9.581249, -1166.892994, -591.183065)" fill="none" stroke-linejoin="miter" d="M 271.999989 139.999957 C 271.999989 141.178202 271.971039 142.35604 271.91314 143.533062 C 271.85524 144.709677 271.768798 145.884661 271.653406 147.057198 C 271.537607 148.229736 271.393673 149.399012 271.220789 150.564619 C 271.047905 151.730225 270.846479 152.89094 270.616511 154.046354 C 270.386542 155.202176 270.12844 156.351475 269.842203 157.494658 C 269.555966 158.637434 269.241595 159.772871 268.899497 160.900562 C 268.557806 162.028253 268.187982 163.146567 267.791246 164.255911 C 267.394102 165.365664 266.970047 166.464408 266.519489 167.553368 C 266.068523 168.64192 265.591054 169.718648 265.087081 170.783961 C 264.583516 171.849275 264.053855 172.901542 263.498099 173.940354 C 262.94275 174.979575 262.362121 176.004526 261.756212 177.015208 C 261.150711 178.02589 260.520337 179.021079 259.865907 180.001183 C 259.211068 180.98088 258.532988 181.943861 257.830851 182.890127 C 257.129122 183.8368 256.404152 184.765535 255.656755 185.676331 C 254.909359 186.587127 254.139944 187.479168 253.348511 188.352048 C 252.557078 189.225336 251.74485 190.078647 250.911827 190.911572 C 250.078396 191.744906 249.225394 192.557039 248.352412 193.34838 C 247.479022 194.13972 246.587284 194.909045 245.676381 195.656762 C 244.765479 196.404071 243.836636 197.128957 242.89026 197.831012 C 241.943884 198.532659 240.98079 199.211068 240.000979 199.86583 C 239.021168 200.520592 238.025862 201.150484 237.01547 201.756322 C 236.004671 202.362161 234.9796 202.942722 233.940665 203.498413 C 232.901324 204.053697 231.849342 204.583296 230.783904 205.08721 C 229.718874 205.591124 228.64202 206.068537 227.55334 206.519451 C 226.464661 206.970364 225.365381 207.394369 224.255907 207.791059 C 223.146433 208.188156 222.027988 208.55753 220.900573 208.899588 C 219.772751 209.241646 218.637589 209.55598 217.49468 209.842184 C 216.351363 210.128388 215.202337 210.38646 214.04638 210.616401 C 212.890831 210.846343 211.729981 211.047745 210.564646 211.220609 C 209.398903 211.393472 208.229898 211.537797 207.057224 211.653176 C 205.884549 211.768962 204.709836 211.855394 203.532676 211.913287 C 202.355924 211.97118 201.178357 212.000126 199.999974 212.000126 C 198.821591 212.000126 197.644023 211.97118 196.467271 211.913287 C 195.290111 211.855394 194.115398 211.768962 192.942724 211.653176 C 191.770049 211.537797 190.601044 211.393472 189.435301 211.220609 C 188.269966 211.047745 187.109116 210.846343 185.953567 210.616401 C 184.79761 210.38646 183.648585 210.128388 182.505268 209.842184 C 181.362359 209.55598 180.227197 209.241646 179.099374 208.899588 C 177.971959 208.55753 176.853515 208.188156 175.744041 207.791059 C 174.634566 207.394369 173.535286 206.970364 172.446607 206.519451 C 171.358336 206.068537 170.281073 205.591124 169.216043 205.08721 C 168.151014 204.583296 167.098624 204.053697 166.059282 203.498413 C 165.020348 202.942722 163.995277 202.362161 162.984477 201.756322 C 161.974085 201.150484 160.978779 200.520592 159.998968 199.86583 C 159.019157 199.211068 158.056063 198.532659 157.109687 197.831012 C 156.163311 197.128957 155.234468 196.404071 154.323566 195.656762 C 153.412664 194.909045 152.520925 194.13972 151.647536 193.34838 C 150.774554 192.557039 149.921551 191.744906 149.08812 190.911572 C 148.255097 190.078647 147.442869 189.225336 146.651436 188.352048 C 145.860003 187.479168 145.090589 186.587127 144.343192 185.676331 C 143.595796 184.765535 142.870825 183.8368 142.169096 182.890127 C 141.466959 181.943861 140.788879 180.98088 140.134041 180.001183 C 139.47961 179.021079 138.849236 178.02589 138.243327 177.015208 C 137.637826 176.004526 137.057197 174.979575 136.501849 173.940354 C 135.946092 172.901542 135.416431 171.849275 134.912866 170.783961 C 134.408894 169.718648 133.931424 168.64192 133.480458 167.553368 C 133.0299 166.464408 132.605845 165.365664 132.208702 164.255911 C 131.811966 163.146567 131.442141 162.028253 131.100451 160.900562 C 130.758353 159.772871 130.443981 158.637434 130.157744 157.494658 C 129.871507 156.351475 129.613405 155.202176 129.383437 154.046354 C 129.153469 152.89094 128.952043 151.730225 128.779159 150.564619 C 128.606275 149.399012 128.462341 148.229736 128.346541 147.057198 C 128.231149 145.884661 128.144707 144.709677 128.086808 143.533062 C 128.028908 142.35604 127.999958 141.178202 127.999958 139.999957 C 127.999958 138.821712 128.028908 137.643874 128.086808 136.467259 C 128.144707 135.290237 128.231149 134.115253 128.346541 132.942716 C 128.462341 131.770178 128.606275 130.600902 128.779159 129.435295 C 128.952043 128.269688 129.153469 127.108974 129.383437 125.95356 C 129.613405 124.797738 129.871507 123.648439 130.157744 122.505255 C 130.443981 121.36248 130.758353 120.227043 131.100451 119.099352 C 131.442141 117.972068 131.811966 116.853347 132.208702 115.744002 C 132.605845 114.634658 133.0299 113.535506 133.480458 112.446954 C 133.931424 111.357994 134.408894 110.281265 134.912866 109.215952 C 135.416431 108.150639 135.946092 107.09878 136.501849 106.059559 C 137.057197 105.020339 137.637826 103.995388 138.243327 102.984706 C 138.849236 101.974024 139.47961 100.978835 140.134041 99.99873 C 140.788879 99.019034 141.466959 98.056052 142.169096 97.109787 C 142.870825 96.163114 143.595796 95.234379 144.343192 94.323583 C 145.090589 93.412787 145.860003 92.520745 146.651436 91.647865 C 147.442869 90.774578 148.255097 89.921675 149.08812 89.088341 C 149.921551 88.255008 150.774554 87.442875 151.647536 86.651534 C 152.520925 85.860194 153.412664 85.090869 154.323566 84.343152 C 155.234468 83.595842 156.163311 82.870957 157.109687 82.168902 C 158.056063 81.467255 159.019157 80.788846 159.998968 80.134084 C 160.978779 79.47973 161.974085 78.84943 162.984477 78.243591 C 163.995277 77.637753 165.020348 77.057192 166.059282 76.501501 C 167.098624 75.946217 168.151014 75.416618 169.216043 74.912704 C 170.281073 74.40879 171.358336 73.931784 172.446607 73.480463 C 173.535286 73.02955 174.634566 72.605952 175.744041 72.208855 C 176.853515 71.811758 177.971959 71.442384 179.099374 71.100326 C 180.227197 70.758268 181.362359 70.443933 182.505268 70.15773 C 183.648585 69.871526 184.79761 69.613454 185.953567 69.383512 C 187.109116 69.153571 188.269966 68.952169 189.435301 68.779305 C 190.601044 68.606441 191.770049 68.462116 192.942724 68.346738 C 194.115398 68.23136 195.290111 68.14452 196.467271 68.086627 C 197.644023 68.028734 198.821591 68.000195 199.999974 68.000195 C 201.178357 68.000195 202.355924 68.028734 203.532676 68.086627 C 204.709836 68.14452 205.884549 68.23136 207.057224 68.346738 C 208.229898 68.462116 209.398903 68.606441 210.564646 68.779305 C 211.729981 68.952169 212.890831 69.153571 214.04638 69.383512 C 215.202337 69.613454 216.351363 69.871526 217.49468 70.15773 C 218.637589 70.443933 219.772751 70.758268 220.900573 71.100326 C 222.027988 71.442384 223.146433 71.811758 224.255907 72.208855 C 225.365381 72.605952 226.464661 73.02955 227.55334 73.480463 C 228.64202 73.931784 229.718874 74.40879 230.783904 74.912704 C 231.849342 75.416618 232.901324 75.946217 233.940665 76.501501 C 234.9796 77.057192 236.004671 77.637753 237.01547 78.243591 C 238.025862 78.84943 239.021168 79.47973 240.000979 80.134084 C 240.98079 80.788846 241.943884 81.467255 242.89026 82.168902 C 243.836636 82.870957 244.765479 83.595842 245.676381 84.343152 C 246.587284 85.090869 247.479022 85.860194 248.352412 86.651534 C 249.225394 87.442875 250.078396 88.255008 250.911827 89.088341 C 251.74485 89.921675 252.557078 90.774578 253.348511 91.647865 C 254.139944 92.520745 254.909359 93.412787 255.656755 94.323583 C 256.404152 95.234379 257.129122 96.163114 257.830851 97.109787 C 258.532988 98.056052 259.211068 99.019034 259.865907 99.99873 C 260.520337 100.978835 261.150711 101.974024 261.756212 102.984706 C 262.362121 103.995388 262.94275 105.020339 263.498099 106.059559 C 264.053855 107.09878 264.583516 108.150639 265.087081 109.215952 C 265.591054 110.281265 266.068523 111.357994 266.519489 112.446954 C 266.970047 113.535506 267.394102 114.634658 267.791246 115.744002 C 268.187982 116.853347 268.557806 117.972068 268.899497 119.099352 C 269.241595 120.227043 269.555966 121.36248 269.842203 122.505255 C 270.12844 123.648439 270.386542 124.797738 270.616511 125.95356 C 270.846479 127.108974 271.047905 128.269688 271.220789 129.435295 C 271.393673 130.600902 271.537607 131.770178 271.653406 132.942716 C 271.768798 134.115253 271.85524 135.290237 271.91314 136.467259 C 271.971039 137.643874 271.999989 138.821712 271.999989 139.999957 Z M 271.999989 139.999957 " stroke="#ff5100" stroke-width="3" stroke-opacity="0.18" stroke-miterlimit="4"/><path fill="#ff5100" d="M 1323.941406 750.191406 C 1323.941406 759.601562 1323.710938 769.003906 1323.25 778.398438 C 1322.785156 787.796875 1322.09375 797.175781 1321.171875 806.539062 C 1320.25 815.902344 1319.097656 825.238281 1317.71875 834.542969 C 1316.339844 843.851562 1314.730469 853.117188 1312.894531 862.34375 C 1311.0625 871.570312 1309 880.75 1306.714844 889.875 C 1304.429688 899 1301.921875 908.066406 1299.191406 917.070312 C 1296.457031 926.074219 1293.507812 935.003906 1290.339844 943.859375 C 1287.171875 952.71875 1283.785156 961.496094 1280.1875 970.1875 C 1276.585938 978.878906 1272.773438 987.476562 1268.753906 995.980469 C 1264.730469 1004.488281 1260.503906 1012.886719 1256.066406 1021.1875 C 1251.632812 1029.484375 1247 1037.667969 1242.160156 1045.738281 C 1237.324219 1053.804688 1232.292969 1061.753906 1227.066406 1069.574219 C 1221.839844 1077.398438 1216.425781 1085.085938 1210.824219 1092.644531 C 1205.21875 1100.199219 1199.433594 1107.617188 1193.464844 1114.886719 C 1187.496094 1122.160156 1181.355469 1129.28125 1175.039062 1136.253906 C 1168.71875 1143.226562 1162.234375 1150.035156 1155.582031 1156.691406 C 1148.929688 1163.34375 1142.121094 1169.828125 1135.148438 1176.144531 C 1128.179688 1182.464844 1121.058594 1188.605469 1113.789062 1194.574219 C 1106.515625 1200.542969 1099.101562 1206.332031 1091.546875 1211.933594 C 1083.988281 1217.539062 1076.300781 1222.957031 1068.480469 1228.183594 C 1060.65625 1233.410156 1052.710938 1238.441406 1044.644531 1243.277344 C 1036.574219 1248.113281 1028.390625 1252.75 1020.09375 1257.1875 C 1011.800781 1261.621094 1003.398438 1265.851562 994.894531 1269.871094 C 986.390625 1273.894531 977.792969 1277.707031 969.101562 1281.308594 C 960.410156 1284.90625 951.636719 1288.292969 942.78125 1291.460938 C 933.921875 1294.632812 924.992188 1297.582031 915.992188 1300.3125 C 906.988281 1303.042969 897.925781 1305.550781 888.800781 1307.839844 C 879.675781 1310.125 870.5 1312.183594 861.273438 1314.019531 C 852.046875 1315.855469 842.78125 1317.464844 833.476562 1318.84375 C 824.167969 1320.226562 814.835938 1321.375 805.472656 1322.296875 C 796.113281 1323.222656 786.734375 1323.914062 777.335938 1324.375 C 767.941406 1324.835938 758.539062 1325.066406 749.132812 1325.066406 C 739.726562 1325.066406 730.324219 1324.835938 720.929688 1324.375 C 711.53125 1323.914062 702.152344 1323.222656 692.792969 1322.296875 C 683.429688 1321.375 674.097656 1320.226562 664.789062 1318.84375 C 655.484375 1317.464844 646.21875 1315.855469 636.992188 1314.019531 C 627.765625 1312.183594 618.589844 1310.125 609.464844 1307.839844 C 600.339844 1305.550781 591.277344 1303.042969 582.273438 1300.3125 C 573.273438 1297.582031 564.34375 1294.632812 555.484375 1291.460938 C 546.628906 1288.292969 537.855469 1284.90625 529.164062 1281.308594 C 520.472656 1277.707031 511.875 1273.894531 503.371094 1269.871094 C 494.867188 1265.851562 486.464844 1261.621094 478.171875 1257.1875 C 469.875 1252.75 461.691406 1248.113281 453.621094 1243.277344 C 445.554688 1238.441406 437.609375 1233.410156 429.785156 1228.183594 C 421.964844 1222.957031 414.277344 1217.539062 406.71875 1211.933594 C 399.164062 1206.332031 391.75 1200.542969 384.480469 1194.574219 C 377.207031 1188.605469 370.085938 1182.464844 363.117188 1176.144531 C 356.144531 1169.828125 349.335938 1163.34375 342.683594 1156.691406 C 336.03125 1150.035156 329.546875 1143.226562 323.226562 1136.253906 C 316.910156 1129.285156 310.769531 1122.160156 304.800781 1114.890625 C 298.832031 1107.617188 293.046875 1100.199219 287.441406 1092.644531 C 281.839844 1085.085938 276.425781 1077.398438 271.199219 1069.574219 C 265.972656 1061.753906 260.941406 1053.804688 256.105469 1045.738281 C 251.265625 1037.667969 246.632812 1029.484375 242.199219 1021.1875 C 237.761719 1012.886719 233.535156 1004.488281 229.511719 995.980469 C 225.492188 987.476562 221.679688 978.878906 218.078125 970.1875 C 214.480469 961.496094 211.09375 952.71875 207.925781 943.859375 C 204.757812 935.003906 201.808594 926.074219 199.074219 917.070312 C 196.34375 908.066406 193.835938 899 191.550781 889.875 C 189.265625 880.75 187.207031 871.570312 185.371094 862.34375 C 183.535156 853.117188 181.925781 843.851562 180.546875 834.542969 C 179.167969 825.238281 178.015625 815.902344 177.09375 806.539062 C 176.171875 797.175781 175.480469 787.796875 175.015625 778.398438 C 174.554688 769.003906 174.324219 759.601562 174.324219 750.191406 C 174.324219 740.785156 174.554688 731.382812 175.015625 721.984375 C 175.480469 712.585938 176.171875 703.207031 177.09375 693.84375 C 178.015625 684.480469 179.167969 675.148438 180.546875 665.839844 C 181.925781 656.535156 183.535156 647.265625 185.371094 638.039062 C 187.207031 628.8125 189.265625 619.636719 191.550781 610.507812 C 193.835938 601.382812 196.34375 592.316406 199.074219 583.3125 C 201.808594 574.3125 204.757812 565.378906 207.925781 556.523438 C 211.09375 547.664062 214.480469 538.890625 218.078125 530.195312 C 221.679688 521.503906 225.492188 512.90625 229.511719 504.402344 C 233.535156 495.894531 237.761719 487.496094 242.199219 479.199219 C 246.632812 470.898438 251.265625 462.714844 256.105469 454.648438 C 260.941406 446.578125 265.972656 438.632812 271.199219 430.808594 C 276.425781 422.984375 281.839844 415.296875 287.441406 407.738281 C 293.046875 400.183594 298.832031 392.765625 304.800781 385.496094 C 310.769531 378.222656 316.910156 371.101562 323.226562 364.128906 C 329.546875 357.160156 336.03125 350.347656 342.683594 343.695312 C 349.335938 337.042969 356.144531 330.554688 363.117188 324.238281 C 370.085938 317.917969 377.207031 311.777344 384.480469 305.808594 C 391.75 299.839844 399.164062 294.050781 406.71875 288.449219 C 414.277344 282.84375 421.964844 277.425781 429.785156 272.199219 C 437.609375 266.972656 445.554688 261.941406 453.621094 257.105469 C 461.691406 252.269531 469.875 247.632812 478.171875 243.199219 C 486.464844 238.761719 494.867188 234.535156 503.371094 230.511719 C 511.875 226.488281 520.472656 222.675781 529.164062 219.078125 C 537.855469 215.476562 546.628906 212.089844 555.484375 208.921875 C 564.34375 205.753906 573.273438 202.800781 582.273438 200.070312 C 591.277344 197.339844 600.339844 194.832031 609.464844 192.546875 C 618.589844 190.257812 627.765625 188.199219 636.992188 186.363281 C 646.21875 184.527344 655.484375 182.917969 664.792969 181.539062 C 674.097656 180.160156 683.429688 179.007812 692.792969 178.085938 C 702.152344 177.164062 711.53125 176.472656 720.929688 176.007812 C 730.324219 175.546875 739.726562 175.316406 749.132812 175.316406 C 758.539062 175.316406 767.941406 175.546875 777.335938 176.007812 C 786.734375 176.472656 796.113281 177.164062 805.472656 178.085938 C 814.835938 179.007812 824.167969 180.160156 833.476562 181.539062 C 842.78125 182.917969 852.046875 184.527344 861.273438 186.363281 C 870.5 188.199219 879.675781 190.257812 888.800781 192.546875 C 897.925781 194.832031 906.988281 197.339844 915.992188 200.070312 C 924.992188 202.800781 933.921875 205.753906 942.78125 208.921875 C 951.636719 212.089844 960.410156 215.476562 969.101562 219.078125 C 977.792969 222.675781 986.390625 226.488281 994.894531 230.511719 C 1003.398438 234.535156 1011.800781 238.761719 1020.09375 243.199219 C 1028.390625 247.632812 1036.574219 252.269531 1044.644531 257.105469 C 1052.710938 261.941406 1060.65625 266.972656 1068.480469 272.199219 C 1076.300781 277.425781 1083.988281 282.84375 1091.546875 288.449219 C 1099.101562 294.050781 1106.515625 299.839844 1113.789062 305.808594 C 1121.058594 311.777344 1128.179688 317.917969 1135.148438 324.238281 C 1142.121094 330.554688 1148.929688 337.042969 1155.582031 343.695312 C 1162.234375 350.347656 1168.71875 357.160156 1175.039062 364.128906 C 1181.355469 371.101562 1187.496094 378.222656 1193.464844 385.496094 C 1199.433594 392.765625 1205.21875 400.183594 1210.824219 407.738281 C 1216.425781 415.296875 1221.839844 422.984375 1227.066406 430.808594 C 1232.292969 438.632812 1237.324219 446.578125 1242.160156 454.648438 C 1247 462.714844 1251.632812 470.898438 1256.066406 479.199219 C 1260.503906 487.496094 1264.730469 495.894531 1268.753906 504.402344 C 1272.773438 512.90625 1276.585938 521.503906 1280.1875 530.195312 C 1283.785156 538.890625 1287.171875 547.664062 1290.339844 556.523438 C 1293.507812 565.378906 1296.457031 574.3125 1299.191406 583.3125 C 1301.921875 592.316406 1304.429688 601.382812 1306.714844 610.507812 C 1309 619.636719 1311.0625 628.8125 1312.894531 638.039062 C 1314.730469 647.265625 1316.339844 656.535156 1317.71875 665.839844 C 1319.097656 675.148438 1320.25 684.480469 1321.171875 693.84375 C 1322.09375 703.207031 1322.785156 712.585938 1323.25 721.984375 C 1323.710938 731.382812 1323.941406 740.785156 1323.941406 750.191406 Z M 1323.941406 750.191406 " fill-opacity="0.06" fill-rule="nonzero"/><path stroke-linecap="round" transform="matrix(9.58013, 0, 0, 9.581249, -1166.892994, -591.183065)" fill="none" stroke-linejoin="round" d="M 164.00017 103.999872 L 199.999974 172.000123 L 236.000185 103.999872 " stroke="#ff5100" stroke-width="9" stroke-opacity="1" stroke-miterlimit="4"/><g mask="url(#7c28fce7bf)"><g transform="matrix(1, 0, 0, 1, 116, 520)"><g clip-path="url(#989726d051)"><path stroke-linecap="round" transform="matrix(9.58013, 0, 0, 9.581249, -1282.892994, -1111.183017)" fill="none" stroke-linejoin="miter" d="M 135.999914 118.000195 L 155.999806 118.000195 " stroke="#ff5100" stroke-width="2.5" stroke-opacity="1" stroke-miterlimit="4"/></g></g></g><g mask="url(#bf97059cd0)"><g transform="matrix(1, 0, 0, 1, 68, 663)"><g clip-path="url(#08bb7ee8b4)"><g clip-path="url(#57668116ff)"><path stroke-linecap="round" transform="matrix(9.58013, 0, 0, 9.581249, -1234.892994, -1254.183017)" fill="none" stroke-linejoin="miter" d="M 129.999947 132.000114 L 153.999816 132.000114 " stroke="#ff5100" stroke-width="2" stroke-opacity="1" stroke-miterlimit="4"/></g></g></g></g><g mask="url(#32d81897a7)"><g transform="matrix(1, 0, 0, 1, 126, 798)"><g clip-path="url(#a0528baa5a)"><path stroke-linecap="round" transform="matrix(9.58013, 0, 0, 9.581249, -1292.892994, -1389.183017)" fill="none" stroke-linejoin="miter" d="M 135.999914 146.000034 L 155.000015 146.000034 " stroke="#ff5100" stroke-width="1.5" stroke-opacity="1" stroke-miterlimit="4"/></g></g></g><g mask="url(#0bec92aef3)"><g transform="matrix(1, 0, 0, 1, 1151, 520)"><g clip-path="url(#3e12191678)"><path stroke-linecap="round" transform="matrix(9.58013, 0, 0, 9.581249, -2317.892994, -1111.183017)" fill="none" stroke-linejoin="miter" d="M 244.000142 118.000195 L 264.000033 118.000195 " stroke="#ff5100" stroke-width="2.5" stroke-opacity="1" stroke-miterlimit="4"/></g></g></g><g mask="url(#cc3b50899b)"><g transform="matrix(1, 0, 0, 1, 1180, 663)"><g clip-path="url(#a6535f137a)"><g clip-path="url(#14b0540d19)"><path stroke-linecap="round" transform="matrix(9.58013, 0, 0, 9.581249, -2346.892994, -1254.183017)" fill="none" stroke-linejoin="miter" d="M 246.000131 132.000114 L 270 132.000114 " stroke="#ff5100" stroke-width="2" stroke-opacity="1" stroke-miterlimit="4"/></g></g></g></g><g mask="url(#b1d80a2cc9)"><g transform="matrix(1, 0, 0, 1, 1170, 798)"><g clip-path="url(#f00a0be076)"><path stroke-linecap="round" transform="matrix(9.58013, 0, 0, 9.581249, -2336.892994, -1389.183017)" fill="none" stroke-linejoin="miter" d="M 244.999932 146.000034 L 264.999824 146.000034 " stroke="#ff5100" stroke-width="1.5" stroke-opacity="1" stroke-miterlimit="4"/></g></g></g><path fill="#ff5100" d="M 816.195312 1085.535156 C 816.195312 1086.632812 816.167969 1087.730469 816.113281 1088.828125 C 816.058594 1089.921875 815.980469 1091.015625 815.871094 1092.109375 C 815.761719 1093.203125 815.628906 1094.289062 815.46875 1095.375 C 815.308594 1096.460938 815.121094 1097.542969 814.90625 1098.621094 C 814.691406 1099.695312 814.449219 1100.765625 814.183594 1101.832031 C 813.917969 1102.894531 813.625 1103.953125 813.304688 1105.003906 C 812.988281 1106.054688 812.644531 1107.097656 812.273438 1108.128906 C 811.902344 1109.164062 811.507812 1110.1875 811.089844 1111.203125 C 810.667969 1112.214844 810.222656 1113.21875 809.753906 1114.210938 C 809.285156 1115.203125 808.792969 1116.183594 808.273438 1117.152344 C 807.757812 1118.121094 807.21875 1119.074219 806.652344 1120.015625 C 806.089844 1120.957031 805.5 1121.882812 804.890625 1122.796875 C 804.28125 1123.710938 803.648438 1124.605469 802.996094 1125.488281 C 802.34375 1126.371094 801.667969 1127.234375 800.972656 1128.082031 C 800.273438 1128.933594 799.558594 1129.761719 798.820312 1130.574219 C 798.085938 1131.390625 797.328125 1132.183594 796.550781 1132.960938 C 795.777344 1133.734375 794.980469 1134.492188 794.167969 1135.230469 C 793.355469 1135.96875 792.523438 1136.683594 791.675781 1137.378906 C 790.828125 1138.078125 789.960938 1138.75 789.082031 1139.40625 C 788.199219 1140.058594 787.300781 1140.691406 786.390625 1141.300781 C 785.476562 1141.910156 784.550781 1142.496094 783.609375 1143.0625 C 782.667969 1143.625 781.714844 1144.167969 780.746094 1144.683594 C 779.777344 1145.203125 778.796875 1145.695312 777.804688 1146.164062 C 776.8125 1146.632812 775.808594 1147.078125 774.796875 1147.5 C 773.78125 1147.917969 772.757812 1148.3125 771.726562 1148.683594 C 770.691406 1149.054688 769.648438 1149.398438 768.601562 1149.714844 C 767.550781 1150.035156 766.492188 1150.328125 765.425781 1150.59375 C 764.363281 1150.859375 763.292969 1151.101562 762.214844 1151.316406 C 761.140625 1151.53125 760.058594 1151.71875 758.972656 1151.878906 C 757.886719 1152.039062 756.796875 1152.171875 755.707031 1152.28125 C 754.613281 1152.390625 753.519531 1152.46875 752.421875 1152.523438 C 751.328125 1152.578125 750.230469 1152.605469 749.132812 1152.605469 C 748.035156 1152.605469 746.9375 1152.578125 745.84375 1152.523438 C 744.746094 1152.46875 743.652344 1152.390625 742.558594 1152.28125 C 741.46875 1152.171875 740.378906 1152.039062 739.292969 1151.878906 C 738.207031 1151.71875 737.125 1151.53125 736.050781 1151.316406 C 734.972656 1151.101562 733.902344 1150.859375 732.839844 1150.59375 C 731.773438 1150.328125 730.714844 1150.035156 729.667969 1149.714844 C 728.617188 1149.398438 727.574219 1149.054688 726.539062 1148.683594 C 725.507812 1148.3125 724.484375 1147.917969 723.46875 1147.5 C 722.457031 1147.078125 721.453125 1146.632812 720.460938 1146.164062 C 719.46875 1145.695312 718.488281 1145.203125 717.519531 1144.683594 C 716.554688 1144.167969 715.597656 1143.625 714.65625 1143.0625 C 713.714844 1142.496094 712.789062 1141.910156 711.875 1141.300781 C 710.964844 1140.691406 710.066406 1140.058594 709.183594 1139.40625 C 708.304688 1138.75 707.4375 1138.078125 706.589844 1137.378906 C 705.742188 1136.683594 704.910156 1135.96875 704.097656 1135.230469 C 703.285156 1134.492188 702.488281 1133.734375 701.714844 1132.960938 C 700.9375 1132.183594 700.179688 1131.390625 699.445312 1130.574219 C 698.707031 1129.761719 697.992188 1128.933594 697.292969 1128.082031 C 696.597656 1127.234375 695.921875 1126.371094 695.269531 1125.488281 C 694.617188 1124.605469 693.984375 1123.710938 693.375 1122.796875 C 692.765625 1121.882812 692.175781 1120.957031 691.613281 1120.015625 C 691.046875 1119.074219 690.507812 1118.121094 689.992188 1117.152344 C 689.472656 1116.183594 688.980469 1115.203125 688.511719 1114.210938 C 688.042969 1113.21875 687.597656 1112.214844 687.175781 1111.203125 C 686.757812 1110.1875 686.363281 1109.164062 685.992188 1108.128906 C 685.621094 1107.097656 685.277344 1106.054688 684.960938 1105.003906 C 684.640625 1103.953125 684.347656 1102.894531 684.082031 1101.832031 C 683.816406 1100.765625 683.574219 1099.695312 683.359375 1098.621094 C 683.148438 1097.542969 682.957031 1096.460938 682.796875 1095.375 C 682.636719 1094.289062 682.503906 1093.203125 682.394531 1092.109375 C 682.289062 1091.015625 682.207031 1089.921875 682.152344 1088.828125 C 682.097656 1087.730469 682.070312 1086.632812 682.070312 1085.535156 C 682.070312 1084.4375 682.097656 1083.339844 682.152344 1082.246094 C 682.207031 1081.148438 682.289062 1080.054688 682.394531 1078.960938 C 682.503906 1077.871094 682.636719 1076.78125 682.796875 1075.695312 C 682.957031 1074.609375 683.148438 1073.527344 683.359375 1072.449219 C 683.574219 1071.375 683.816406 1070.304688 684.082031 1069.238281 C 684.347656 1068.175781 684.640625 1067.117188 684.960938 1066.066406 C 685.277344 1065.015625 685.621094 1063.972656 685.992188 1062.941406 C 686.363281 1061.90625 686.757812 1060.882812 687.175781 1059.867188 C 687.597656 1058.855469 688.042969 1057.851562 688.511719 1056.859375 C 688.980469 1055.867188 689.472656 1054.886719 689.992188 1053.917969 C 690.507812 1052.953125 691.046875 1051.996094 691.613281 1051.054688 C 692.175781 1050.113281 692.765625 1049.1875 693.375 1048.273438 C 693.984375 1047.359375 694.617188 1046.464844 695.269531 1045.582031 C 695.921875 1044.699219 696.597656 1043.835938 697.292969 1042.988281 C 697.992188 1042.140625 698.707031 1041.308594 699.445312 1040.496094 C 700.179688 1039.679688 700.9375 1038.886719 701.714844 1038.109375 C 702.488281 1037.335938 703.285156 1036.578125 704.097656 1035.839844 C 704.910156 1035.105469 705.742188 1034.386719 706.589844 1033.691406 C 707.4375 1032.996094 708.304688 1032.320312 709.183594 1031.664062 C 710.066406 1031.011719 710.964844 1030.378906 711.875 1029.769531 C 712.789062 1029.160156 713.714844 1028.574219 714.65625 1028.007812 C 715.597656 1027.445312 716.554688 1026.902344 717.519531 1026.386719 C 718.488281 1025.867188 719.46875 1025.375 720.460938 1024.90625 C 721.453125 1024.4375 722.457031 1023.992188 723.46875 1023.570312 C 724.484375 1023.152344 725.507812 1022.757812 726.539062 1022.386719 C 727.574219 1022.019531 728.617188 1021.671875 729.667969 1021.355469 C 730.714844 1021.035156 731.773438 1020.742188 732.839844 1020.476562 C 733.902344 1020.210938 734.972656 1019.96875 736.050781 1019.753906 C 737.125 1019.542969 738.207031 1019.355469 739.292969 1019.191406 C 740.378906 1019.03125 741.46875 1018.898438 742.558594 1018.789062 C 743.652344 1018.683594 744.746094 1018.601562 745.84375 1018.546875 C 746.9375 1018.492188 748.035156 1018.46875 749.132812 1018.464844 C 750.230469 1018.46875 751.328125 1018.492188 752.421875 1018.546875 C 753.519531 1018.601562 754.613281 1018.683594 755.707031 1018.789062 C 756.796875 1018.898438 757.886719 1019.03125 758.972656 1019.191406 C 760.058594 1019.355469 761.140625 1019.542969 762.214844 1019.753906 C 763.292969 1019.96875 764.363281 1020.210938 765.425781 1020.476562 C 766.492188 1020.742188 767.550781 1021.035156 768.601562 1021.355469 C 769.648438 1021.671875 770.691406 1022.015625 771.726562 1022.386719 C 772.757812 1022.757812 773.78125 1023.152344 774.796875 1023.570312 C 775.808594 1023.992188 776.8125 1024.4375 777.804688 1024.90625 C 778.796875 1025.375 779.777344 1025.867188 780.746094 1026.386719 C 781.714844 1026.902344 782.667969 1027.445312 783.609375 1028.007812 C 784.550781 1028.574219 785.476562 1029.160156 786.390625 1029.769531 C 787.300781 1030.378906 788.199219 1031.011719 789.082031 1031.664062 C 789.960938 1032.320312 790.828125 1032.996094 791.675781 1033.691406 C 792.523438 1034.386719 793.355469 1035.105469 794.167969 1035.839844 C 794.980469 1036.578125 795.777344 1037.335938 796.550781 1038.109375 C 797.328125 1038.886719 798.085938 1039.679688 798.820312 1040.496094 C 799.558594 1041.308594 800.277344 1042.140625 800.972656 1042.988281 C 801.667969 1043.835938 802.34375 1044.699219 802.996094 1045.582031 C 803.652344 1046.464844 804.28125 1047.359375 804.890625 1048.273438 C 805.5 1049.1875 806.089844 1050.113281 806.652344 1051.054688 C 807.21875 1051.996094 807.757812 1052.953125 808.273438 1053.917969 C 808.792969 1054.886719 809.285156 1055.867188 809.753906 1056.859375 C 810.222656 1057.851562 810.667969 1058.855469 811.089844 1059.867188 C 811.507812 1060.882812 811.902344 1061.90625 812.273438 1062.941406 C 812.644531 1063.972656 812.988281 1065.015625 813.304688 1066.066406 C 813.625 1067.117188 813.917969 1068.175781 814.183594 1069.238281 C 814.449219 1070.304688 814.691406 1071.375 814.90625 1072.449219 C 815.121094 1073.527344 815.308594 1074.609375 815.46875 1075.695312 C 815.628906 1076.78125 815.761719 1077.871094 815.871094 1078.960938 C 815.980469 1080.054688 816.058594 1081.148438 816.113281 1082.246094 C 816.167969 1083.339844 816.195312 1084.4375 816.195312 1085.535156 Z M 816.195312 1085.535156 " fill-opacity="1" fill-rule="nonzero"/><path stroke-linecap="butt" transform="matrix(9.58013, 0, 0, 9.581249, -1166.892994, -591.183065)" fill="none" stroke-linejoin="miter" d="M 203.500057 174.99996 C 203.500057 175.114523 203.494348 175.229086 203.483339 175.343241 C 203.471922 175.456989 203.455205 175.570329 203.432779 175.682853 C 203.410353 175.795377 203.382626 175.906271 203.349191 176.015942 C 203.316164 176.125612 203.277428 176.233652 203.233391 176.339246 C 203.189763 176.445247 203.140833 176.548802 203.086603 176.649911 C 203.032781 176.75102 202.973658 176.849275 202.91005 176.944269 C 202.846441 177.03967 202.778348 177.131809 202.705362 177.22028 C 202.632783 177.309158 202.556127 177.393959 202.474986 177.474683 C 202.393844 177.555815 202.309033 177.632869 202.220553 177.70544 C 202.131664 177.778417 202.039922 177.846503 201.944509 177.910104 C 201.849097 177.973704 201.750831 178.032821 201.64971 178.086637 C 201.548997 178.14086 201.44543 178.189784 201.339416 178.233408 C 201.233402 178.277439 201.125758 178.31617 201.016074 178.349194 C 200.906391 178.382625 200.795076 178.410348 200.682946 178.432772 C 200.570409 178.455195 200.457056 178.471911 200.342887 178.483326 C 200.229126 178.494334 200.11455 178.500042 199.999974 178.500042 C 199.885397 178.500042 199.771229 178.494334 199.65706 178.483326 C 199.542892 178.471911 199.429538 178.455195 199.317001 178.432772 C 199.204871 178.410348 199.093557 178.382625 198.983873 178.349194 C 198.87419 178.31617 198.766545 178.277439 198.660531 178.233408 C 198.554518 178.189784 198.451358 178.14086 198.350237 178.086637 C 198.249117 178.032821 198.15085 177.973704 198.055438 177.910104 C 197.960026 177.846503 197.868283 177.778417 197.779802 177.70544 C 197.690914 177.632869 197.606103 177.555815 197.524962 177.474683 C 197.444228 177.393959 197.367164 177.309158 197.294586 177.22028 C 197.221599 177.131809 197.153506 177.03967 197.089898 176.944269 C 197.02629 176.849275 196.967167 176.75102 196.913344 176.649911 C 196.859114 176.548802 196.810185 176.445247 196.766556 176.339246 C 196.72252 176.233652 196.683784 176.125612 196.650756 176.015942 C 196.617321 175.906271 196.589595 175.795377 196.567169 175.682853 C 196.544743 175.570329 196.528025 175.456989 196.517016 175.343241 C 196.505599 175.229086 196.499891 175.114523 196.499891 174.99996 C 196.499891 174.885397 196.505599 174.770834 196.517016 174.657086 C 196.528025 174.542931 196.544743 174.429591 196.567169 174.317067 C 196.589595 174.20495 196.617321 174.093649 196.650756 173.983978 C 196.683784 173.874307 196.72252 173.766675 196.766556 173.660674 C 196.810185 173.554673 196.859114 173.451118 196.913344 173.350009 C 196.967167 173.2489 197.02629 173.150645 197.089898 173.055651 C 197.153506 172.96025 197.221599 172.86811 197.294586 172.77964 C 197.367164 172.69117 197.444228 172.606369 197.524962 172.525237 C 197.606103 172.444105 197.690914 172.36705 197.779802 172.29448 C 197.868283 172.22191 197.960026 172.153417 198.055438 172.089816 C 198.15085 172.026215 198.249117 171.967099 198.350237 171.913283 C 198.451358 171.859059 198.554518 171.810136 198.660531 171.766512 C 198.766545 171.722481 198.87419 171.684157 198.983873 171.650726 C 199.093557 171.617295 199.204871 171.589571 199.317001 171.567148 C 199.429538 171.544725 199.542892 171.528009 199.65706 171.517001 C 199.771229 171.505586 199.885397 171.499878 199.999974 171.499878 C 200.11455 171.499878 200.229126 171.505586 200.342887 171.517001 C 200.457056 171.528009 200.570409 171.544725 200.682946 171.567148 C 200.795076 171.589571 200.906391 171.617295 201.016074 171.650726 C 201.125758 171.684157 201.233402 171.722481 201.339416 171.766512 C 201.44543 171.810136 201.548997 171.859059 201.64971 171.913283 C 201.750831 171.967099 201.849097 172.026215 201.944509 172.089816 C 202.039922 172.153417 202.131664 172.22191 202.220553 172.29448 C 202.309033 172.36705 202.393844 172.444105 202.474986 172.525237 C 202.556127 172.606369 202.632783 172.69117 202.705362 172.77964 C 202.778348 172.86811 202.846441 172.96025 202.91005 173.055651 C 202.973658 173.150645 203.032781 173.2489 203.086603 173.350009 C 203.140833 173.451118 203.189763 173.554673 203.233391 173.660674 C 203.277428 173.766675 203.316164 173.874307 203.349191 173.983978 C 203.382626 174.093649 203.410353 174.20495 203.432779 174.317067 C 203.455205 174.429591 203.471922 174.542931 203.483339 174.657086 C 203.494348 174.770834 203.500057 174.885397 203.500057 174.99996 Z M 203.500057 174.99996 " stroke="#ffffff" stroke-width="1.5" stroke-opacity="1" stroke-miterlimit="4"/></svg>